HIERARCHY
ROOT hip
{
	OFFSET 0.000000 0.000000 0.000000 
	CHANNELS 6 Xposition Yposition Zposition Xrotation Zrotation Yrotation
	JOINT abdomen
	{
		OFFSET 0.000000 3.402643 0.000000 
		CHANNELS 3 Xrotation Zrotation Yrotation
		JOINT chest
		{
			OFFSET 0.000000 8.438565 -0.680529 
			CHANNELS 3 Xrotation Zrotation Yrotation
			JOINT neck
			{
				OFFSET 0.000000 10.207942 -0.272212 
				CHANNELS 3 Xrotation Zrotation Yrotation
				JOINT head
				{
					OFFSET 0.000000 3.130431 0.000000 
					CHANNELS 3 Xrotation Zrotation Yrotation
					End Site
					{
						OFFSET 0.000000 3.130435 0.000000 
					}
				}
			}
			JOINT lCollar
			{
				OFFSET 3.470700 6.669187 -0.816635 
				CHANNELS 3 Yrotation Zrotation Xrotation
				JOINT lShldr
				{
					OFFSET 3.198488 0.000000 0.000000 
					CHANNELS 3 Zrotation Yrotation Xrotation
					JOINT lForeArm
					{
						OFFSET 10.139888 0.000000 0.000000 
						CHANNELS 3 Yrotation Zrotation Xrotation
						JOINT lHand
						{
							OFFSET 8.370511 0.000000 0.000000 
							CHANNELS 3 Zrotation Yrotation Xrotation
							End Site
							{
								OFFSET 4.083176 0.000000 0.000000 
							}
						}
					}
				}
			}
			JOINT rCollar
			{
				OFFSET -3.470700 6.669187 -0.816635 
				CHANNELS 3 Yrotation Zrotation Xrotation
				JOINT rShldr
				{
					OFFSET -3.198488 0.000000 0.000000 
					CHANNELS 3 Zrotation Yrotation Xrotation
					JOINT rForeArm
					{
						OFFSET -10.139888 0.000000 0.000000 
						CHANNELS 3 Yrotation Zrotation Xrotation
						JOINT rHand
						{
							OFFSET -8.370511 0.000000 0.000000 
							CHANNELS 3 Zrotation Yrotation Xrotation
							End Site
							{
								OFFSET -4.083176 0.000000 0.000000 
							}
						}
					}
				}
			}
		}
	}
	JOINT lThigh
	{
		OFFSET 5.308129 -1.633274 1.361059 
		CHANNELS 3 Xrotation Zrotation Yrotation
		JOINT lShin
		{
			OFFSET -2.041588 -20.007561 0.000000 
			CHANNELS 3 Xrotation Zrotation Yrotation
			JOINT lFoot
			{
				OFFSET 0.000000 -19.190928 -1.224953 
				CHANNELS 3 Xrotation Yrotation Zrotation
				End Site
				{
					OFFSET 0.000000 -2.449906 4.627600 
				}
			}
		}
	}
	JOINT rThigh
	{
		OFFSET -5.308129 -1.633274 1.361059 
		CHANNELS 3 Xrotation Zrotation Yrotation
		JOINT rShin
		{
			OFFSET 2.041588 -20.007561 0.000000 
			CHANNELS 3 Xrotation Zrotation Yrotation
			JOINT rFoot
			{
				OFFSET 0.000000 -19.190928 -1.224953 
				CHANNELS 3 Xrotation Yrotation Zrotation
				End Site
				{
					OFFSET 0.000000 -2.449906 4.627600 
				}
			}
		}
	}
}
MOTION
Frames: 13
Frame Time: 0.011111
18.897087 47.773529 -148.527557 5.007622 -1.043815 -2.071711 19.561983 4.143767 8.303057 -22.478285 -0.084457 1.865006 -11.703758 -0.468172 -0.970853 29.139063 -0.691223 -2.043800 -7.198545 -2.255300 -0.324897 -71.878822 -22.926233 18.661484 -42.972904 5.752147 5.447124 8.524705 12.647240 -41.849010 5.113256 1.510366 0.237230 68.506569 31.838739 4.594461 46.682724 -6.871488 6.850307 -8.533279 -12.636986 36.039211 -23.866383 10.038679 9.470592 63.560291 -2.348364 -8.433946 -5.003817 -0.505399 -3.233342 -15.396774 0.771287 -0.409872 37.048340 4.890334 5.733138 -18.483583 17.221106 9.298575 
18.900717 47.770889 -148.105423 5.292070 -1.294852 -1.797018 19.378366 4.402707 8.453313 -22.624912 -0.342713 1.892071 -10.987361 -0.712156 -0.813956 28.156412 0.187897 -1.506456 -7.198545 -2.255300 -0.324897 -71.902206 -21.991661 18.830410 -42.850243 5.710212 5.397459 8.524705 12.647240 -41.897839 5.113256 1.510366 0.237230 68.405540 32.556320 5.357596 47.324154 -7.044396 7.097692 -8.533279 -12.636986 36.800926 -25.401846 10.209717 9.330019 62.808624 -2.417562 -8.367635 -14.949163 -2.287286 -3.624086 -14.952989 0.907923 -0.491118 37.019104 4.884370 5.738374 -18.494278 17.706430 9.474592 
18.898405 47.735569 -147.689850 5.273256 -1.498922 -1.717279 19.586523 4.465360 8.708303 -22.888584 -0.527306 1.958520 -12.087424 -0.425866 -1.063888 29.914070 -0.184142 -2.116514 -7.198545 -2.255300 -0.324897 -71.868729 -20.911337 19.528719 -42.932384 5.743163 5.438530 8.524705 12.647240 -41.468147 5.113256 1.510366 0.237230 68.230301 33.177975 6.582074 48.226700 -7.280660 7.453714 -8.533279 -12.636986 38.031399 -26.535685 10.415604 9.084276 61.635880 -2.544420 -8.290737 -15.169915 -2.602908 -3.714144 -14.078819 1.074092 -0.343450 36.771248 4.903625 5.703435 -18.331238 18.256319 9.677224 
18.896095 47.699261 -147.243927 5.254116 -1.690423 -1.773832 19.622156 4.558535 8.923935 -23.220583 -0.680346 2.006917 -11.891629 -0.428934 -1.051191 30.274107 -0.001304 -2.027366 -7.198545 -2.255300 -0.324897 -71.890190 -19.453869 20.338028 -43.085194 5.787884 5.488101 8.524705 12.647240 -40.667374 5.113256 1.510366 0.237230 68.066399 33.515575 7.916159 49.298153 -7.546135 7.885355 -8.533279 -12.636986 38.734524 -27.526442 10.623370 8.761271 60.268082 -2.720059 -8.165117 -15.871258 -1.976770 -3.519085 -13.235367 1.288592 -0.344504 36.344654 4.933429 5.655460 -18.848640 18.390974 9.876551 
18.906328 47.774521 -146.760391 5.283113 -1.715831 -1.914142 19.706001 4.518791 9.077125 -23.630922 -0.976809 2.055171 -11.795246 -0.397467 -1.101603 30.555880 0.125343 -2.073290 -7.198545 -2.255300 -0.324897 -71.875107 -18.080530 20.710238 -42.993725 5.764072 5.462924 8.524705 12.647240 -39.720100 5.113256 1.510366 0.237230 68.047279 33.975990 8.956405 49.840672 -7.675049 8.099098 -8.533279 -12.636986 39.906399 -28.155891 10.581356 8.488769 58.566380 -2.895708 -8.027815 -16.098345 -2.854321 -3.788092 -12.430043 1.249951 -0.518914 35.858707 4.962843 5.602014 -18.826397 18.901163 10.083209 
18.933064 47.866276 -146.284103 5.273457 -1.861878 -2.035487 19.310389 4.746004 9.184413 -22.644650 -0.689072 2.058268 -11.606382 -0.402102 -0.998443 29.585215 -0.417692 -2.009988 -7.198545 -2.255300 -0.324897 -72.441635 -17.861526 19.972715 -43.043983 5.771832 5.472826 8.524705 12.647240 -40.540421 5.113256 1.510366 0.237230 67.179108 35.305393 9.965358 50.091145 -7.732072 8.198366 -8.533279 -12.636986 41.390774 -28.754564 10.709958 8.168077 56.736118 -3.100145 -7.870862 -16.586931 -1.813178 -3.450443 -11.542307 1.318142 -0.886292 35.391762 5.007223 5.516502 -18.917078 19.225546 10.264658 
18.967060 47.823696 -145.817368 5.156554 -2.096033 -2.199535 19.579439 4.845413 9.594150 -22.556757 -0.728665 2.155868 -11.999113 -0.298552 -1.084506 29.606981 -0.659139 -2.238066 -7.198545 -2.255300 -0.324897 -72.583481 -17.042349 20.300011 -43.238731 5.839357 5.545596 8.524705 12.647240 -40.423233 5.113256 1.510366 0.237230 66.685913 36.220249 10.726594 50.539509 -7.828649 8.379078 -8.533279 -12.636986 42.621246 -29.347277 11.050317 8.074860 54.895123 -3.313229 -7.682644 -16.650909 -2.075259 -3.531954 -10.572292 1.522304 -1.162533 35.014668 5.027048 5.479060 -19.537970 19.205828 10.444252 
18.990166 47.784748 -145.338440 5.077106 -2.021892 -2.513000 19.868313 4.581594 9.870645 -22.859327 -0.821819 2.250960 -12.263613 -0.365407 -1.089894 29.750681 -0.448504 -2.220421 -7.198545 -2.255300 -0.324897 -72.566872 -15.905817 20.687462 -43.432663 5.899735 5.621974 8.524705 12.647240 -39.983780 5.113256 1.510366 0.237230 66.433189 36.864143 11.708395 51.063572 -7.948358 8.597006 -8.533279 -12.636986 43.724762 -29.757467 11.118638 8.125931 52.944546 -3.509866 -7.490439 -16.918354 -2.694096 -3.731690 -9.815781 1.434016 -1.272095 34.805573 5.046895 5.447419 -19.637915 19.554144 10.631283 
19.006010 47.786072 -144.867416 5.213429 -2.080393 -2.670790 19.897493 4.565318 9.922409 -22.761618 -0.746973 2.266721 -13.040380 -0.591875 -0.866566 30.559998 -0.162350 -1.792383 -7.198545 -2.255300 -0.324897 -72.815750 -15.269001 20.423639 -43.351089 5.874603 5.587962 8.524705 12.647240 -39.954475 5.113256 1.510366 0.237230 65.944954 37.838955 12.635866 51.608501 -8.063719 8.820591 -8.533279 -12.636986 44.554832 -30.445969 11.170153 7.707327 50.942646 -3.704922 -7.297286 -17.771576 -3.584059 -4.005043 -9.269300 1.482366 -1.353940 34.567707 5.062069 5.401092 -18.820402 20.011137 10.587524 
19.025814 47.766598 -144.407974 5.380256 -2.306906 -2.689046 19.386221 4.651556 10.284858 -22.742161 -0.891237 2.368449 -12.357758 -0.362777 -0.976726 30.519697 -0.044077 -1.880610 -7.198545 -2.255300 -0.324897 -72.810364 -13.897532 20.941038 -43.432663 5.899735 5.621974 8.524705 12.647240 -39.759167 5.113256 1.510366 0.237230 65.738724 37.995548 12.990902 52.342556 -8.207595 9.110706 -8.533279 -12.636986 45.131008 -31.312313 11.315158 7.241359 48.997368 -3.890167 -7.108813 -20.472939 -1.653045 -3.269202 -8.546317 1.667563 -1.470847 33.982246 5.091260 5.328488 -18.494112 20.165714 10.535558 
19.040667 47.790359 -143.947525 5.379190 -2.402202 -3.031509 19.246700 4.555644 10.726886 -22.429758 -0.910549 2.500467 -12.109987 -0.389290 -1.170700 30.077248 0.001478 -2.259966 -7.198545 -2.255300 -0.324897 -72.869682 -13.077316 21.449625 -43.555740 5.939867 5.662882 8.524705 12.647240 -39.309952 5.113256 1.510366 0.237230 65.317871 38.711594 13.471049 52.920582 -8.318376 9.351978 -8.533279 -12.636986 45.736473 -31.662622 11.510044 7.322559 46.843342 -4.102025 -6.869387 -20.211317 -0.981559 -3.028515 -7.651068 1.765650 -1.228626 33.422131 5.149713 5.266414 -18.336426 20.677124 10.701492 
19.045946 47.897964 -143.503571 5.318624 -2.533298 -3.550962 19.588711 4.433547 11.249331 -22.644489 -1.082778 2.645748 -12.165481 -0.417299 -1.062576 29.695498 0.360869 -1.949529 -7.198545 -2.255300 -0.324897 -72.820282 -12.124097 21.751627 -43.648010 5.969948 5.695379 8.524705 12.647240 -38.899799 5.113256 1.510366 0.237230 65.090393 39.397827 13.992986 53.394211 -8.406256 9.551313 -8.533279 -12.636986 46.312649 -32.099312 11.826342 7.229351 45.169102 -4.254935 -6.690494 -20.168253 -0.798708 -2.974447 -6.454099 1.883812 -0.782434 32.339733 5.193196 5.133511 -17.306339 21.409204 10.675304 
19.078955 47.770557 -143.054703 5.405241 -2.600265 -3.826536 18.753874 3.980981 12.378948 -23.356890 -1.523760 3.020335 -9.408474 0.347734 -1.449269 28.607250 0.796779 -2.348619 -7.198545 -2.255300 -0.324897 -72.013863 -9.452193 23.645933 -43.995979 6.078527 5.831868 8.524705 12.647240 -38.440807 5.113256 1.510366 0.237230 65.448097 38.084694 13.491714 54.290230 -8.562533 9.925885 -8.533279 -12.636986 46.722805 -32.966030 11.912793 5.840826 42.952095 -4.426418 -6.438824 -18.310377 -2.259855 -3.569360 -5.585678 1.884143 -0.735529 31.381001 5.261471 5.017889 -16.371841 21.750286 10.511719 
